<svg xmlns="http://www.w3.org/2000/svg" xmlns:xlink="http://www.w3.org/1999/xlink" version="1.1" x="0px" y="0px" viewBox="0 0 100 100" enable-background="new 0 0 100 100" xml:space="preserve"><path fill-rule="evenodd" clip-rule="evenodd" d="M50.436,12.07c9.257,0,18.515,0.008,27.771-0.007  c1.572-0.003,3.108,0.143,4.529,0.852c3.414,1.706,5.289,4.472,5.473,8.293c0.091,1.881,0.021,3.768,0.021,5.653  c0,16.796,0.002,33.593-0.006,50.387c0,0.884,0.002,1.787-0.164,2.647c-0.879,4.564-4.626,7.733-9.284,7.741  c-18.903,0.027-37.805,0.032-56.707-0.003c-5.304-0.008-9.393-4.1-9.403-9.399c-0.034-18.902-0.03-37.806-0.003-56.707  c0.008-5.424,4.032-9.418,9.502-9.443C31.589,12.04,41.012,12.071,50.436,12.07z M50.557,16.778c-9.093,0-18.185-0.002-27.277,0.001  c-0.555,0-1.112-0.021-1.662,0.028c-2.236,0.205-4.016,1.979-4.233,4.219c-0.054,0.55-0.031,1.107-0.031,1.662  c-0.001,18.073-0.001,36.147-0.001,54.222c0,0.442-0.011,0.888,0.008,1.329c0.11,2.479,1.723,4.288,4.169,4.642  c0.545,0.08,1.106,0.062,1.66,0.062c18.185,0.003,36.368,0.002,54.554,0.002c0.277,0,0.555,0.007,0.831-0.003  c2.968-0.116,4.849-1.995,4.95-4.943c0.014-0.39,0.004-0.777,0.004-1.165c0-18.02,0-36.037,0-54.055c0-0.5,0.021-1.001-0.02-1.496  c-0.214-2.592-2.088-4.389-4.679-4.496c-0.498-0.021-0.998-0.008-1.497-0.008C68.408,16.778,59.482,16.778,50.557,16.778z"></path><path fill-rule="evenodd" clip-rule="evenodd" d="M46.298,60.461c0.422-0.695,0.744-1.2,1.043-1.719  c4.521-7.818,9.036-15.641,13.556-23.459c0.25-0.431,0.479-0.886,0.796-1.263c0.795-0.944,1.982-1.128,2.995-0.519  c0.991,0.598,1.389,1.761,0.955,2.884c-0.139,0.358-0.337,0.695-0.53,1.032c-5.341,9.265-10.681,18.529-16.026,27.79  c-0.959,1.66-2.428,1.954-3.853,0.666c-3.536-3.196-7.034-6.436-10.517-9.691c-1.147-1.072-1.22-2.371-0.328-3.396  c0.908-1.041,2.348-1.086,3.535-0.017c2.307,2.077,4.573,4.198,6.857,6.302C45.227,59.482,45.676,59.891,46.298,60.461z"></path></svg>